{"accessors" : [{"bufferView" : 0, "byteOffset" : 0, "componentType" : 5123, "count" : 612, "type" : "SCALAR", "max" : [317], "min" : [0]}, {"bufferView" : 1, "byteOffset" : 0, "componentType" : 5126, "count" : 318, "type" : "VEC3", "max" : [-37.45401382446289, 25, 0], "min" : [-70, 0, -54.19219207763672], "name" : "POSITION"}, {"bufferView" : 1, "byteOffset" : 12, "componentType" : 5126, "count" : 318, "type" : "VEC3", "max" : [0.9998299479484558, 1.0000044107437134, 1.0000044107437134], "min" : [-0.9998594522476196, -1.0000044107437134, -0.763288140296936], "name" : "NORMAL"}], "asset" : {"generator" : "Aspose.3D 24.9.1", "version" : "2.0"}, "buffers" : [{"uri" : "data:application/octet-stream;base64,", "byteLength" : 8864}], "bufferViews" : [{"buffer" : 0, "byteOffset" : 0, "byteLength" : 1224, "target" : 34963}, {"buffer" : 0, "byteOffset" : 1228, "byteLength" : 7632, "byteStride" : 24, "target" : 34962}], "meshes" : [{"primitives" : [{"attributes" : {"POSITION" : 1, "NORMAL" : 2}, "indices" : 0, "mode" : 4}], "name" : ""}], "nodes" : [{"mesh" : 0, "name" : ""}], "scene" : 0, "scenes" : [{"nodes" : [0]}]}